<svg id="Layer_1" data-name="Layer 1" xmlns="http://www.w3.org/2000/svg" viewBox="0 0 253.22 149.74"><defs><style>.cls-1{fill:#424143;}.cls-2{fill:#ee3124;}.cls-3{fill:#22bcb9;}</style></defs><title>logo_itob</title><path class="cls-1" d="M419.7,268.62a1.76,1.76,0,0,1,3.51,0v.5a1.76,1.76,0,0,1-3.51,0Zm.27,7.56a1.49,1.49,0,1,1,3,0V293.5a1.46,1.46,0,0,1-1.47,1.51,1.48,1.48,0,0,1-1.5-1.51Z" transform="translate(-263.14 -228.34)"/><path class="cls-1" d="M453.45,293.5a1.49,1.49,0,1,1-3,0v-2.7c-1.62,2.39-4,4.44-7.64,4.44-4.78,0-9.53-3.78-9.53-10.34v-.08c0-6.52,4.75-10.37,9.53-10.37a9,9,0,0,1,7.64,4.24V268a1.46,1.46,0,0,1,1.47-1.51,1.49,1.49,0,0,1,1.5,1.51Zm-17.09-8.71v.07c0,4.71,3.28,7.72,7,7.72a7.45,7.45,0,0,0,7.21-7.72v-.07a7.41,7.41,0,0,0-7.21-7.68C439.52,277.11,436.36,280,436.36,284.79Z" transform="translate(-263.14 -228.34)"/><path class="cls-1" d="M473.43,295.28c-5.48,0-9.95-4.21-9.95-10.38v-.08c0-5.74,4-10.37,9.56-10.37,5.91,0,9.26,4.82,9.26,10.1a1.38,1.38,0,0,1-1.39,1.39H466.49c.42,4.32,3.47,6.75,7,6.75a8.12,8.12,0,0,0,5.74-2.31,1.36,1.36,0,0,1,.85-.35,1.26,1.26,0,0,1,.85,2.24A10.15,10.15,0,0,1,473.43,295.28Zm5.9-11.54C479,280.12,476.94,277,473,277c-3.47,0-6.1,2.9-6.48,6.79Z" transform="translate(-263.14 -228.34)"/><path class="cls-1" d="M490.67,289V289c0-4.2,3.47-6.44,8.53-6.44a21.26,21.26,0,0,1,6.13.85v-.7c0-3.58-2.2-5.44-5.94-5.44a12.55,12.55,0,0,0-5.17,1.12,1.47,1.47,0,0,1-.54.12,1.32,1.32,0,0,1-1.31-1.27,1.37,1.37,0,0,1,.81-1.24,15.7,15.7,0,0,1,6.52-1.35c2.81,0,5,.73,6.44,2.2a7.87,7.87,0,0,1,2,5.82v10.92a1.41,1.41,0,0,1-1.42,1.47,1.37,1.37,0,0,1-1.43-1.39v-1.81a8.74,8.74,0,0,1-7.21,3.43C494.41,295.24,490.67,293.12,490.67,289Zm14.7-1.54v-1.93a20.61,20.61,0,0,0-5.87-.85c-3.74,0-5.82,1.62-5.82,4.13v.07c0,2.51,2.31,4,5,4C502.36,292.89,505.37,290.65,505.37,287.49Z" transform="translate(-263.14 -228.34)"/><path class="cls-1" d="M420.28,326.77V316.05h-.77a2,2,0,1,1,0-4h.77v-3.47a2.33,2.33,0,0,1,4.66,0V312h3.67a2,2,0,1,1,0,4h-3.67v10a2.23,2.23,0,0,0,2.51,2.55,10.6,10.6,0,0,0,1.16-.12,2,2,0,0,1,2,1.93,2,2,0,0,1-1.24,1.81,9.17,9.17,0,0,1-3.2.54C422.71,332.75,420.28,331.25,420.28,326.77Z" transform="translate(-263.14 -228.34)"/><path class="cls-1" d="M438.1,322.34v-.08a10.86,10.86,0,0,1,21.71-.08v.08a10.86,10.86,0,0,1-21.71.08Zm17,0v-.08a6.3,6.3,0,0,0-6.25-6.56c-3.74,0-6.14,2.94-6.14,6.48v.08a6.28,6.28,0,0,0,6.21,6.52A6.11,6.11,0,0,0,455.15,322.34Z" transform="translate(-263.14 -228.34)"/><path class="cls-1" d="M419,344.54a2.94,2.94,0,0,1,5.87,0v7.75a7.57,7.57,0,0,1,6.44-3.35c4.82,0,9.41,3.78,9.41,10.68v.08c0,6.9-4.51,10.68-9.41,10.68a7.92,7.92,0,0,1-6.44-3.08v0a2.94,2.94,0,0,1-5.87,0Zm15.86,15.16v-.08c0-3.43-2.32-5.71-5.06-5.71s-5,2.28-5,5.71v.08c0,3.43,2.28,5.71,5,5.71S434.86,363.17,434.86,359.7Z" transform="translate(-263.14 -228.34)"/><path class="cls-1" d="M459.47,370.46c-6.21,0-10.8-4.36-10.8-10.68v-.08c0-5.9,4.2-10.76,10.22-10.76a9.77,9.77,0,0,1,9.95,9.95,2.67,2.67,0,0,1-2.74,2.81H454.49a4.79,4.79,0,0,0,5.05,4.05,6.83,6.83,0,0,0,4.17-1.38,2.18,2.18,0,0,1,1.43-.47,2.32,2.32,0,0,1,1.5,4.05A10.66,10.66,0,0,1,459.47,370.46ZM463.25,358c-.35-2.62-1.89-4.4-4.36-4.4s-4,1.74-4.48,4.4Z" transform="translate(-263.14 -228.34)"/><path class="cls-1" d="M478.91,364.13v-9.79h-.2a2.51,2.51,0,0,1,0-5h.2v-2.58a2.93,2.93,0,1,1,5.86,0v2.58h2.58a2.51,2.51,0,0,1,0,5h-2.58v8.83c0,1.35.58,2,1.89,2,.19,0,.58,0,.69,0a2.45,2.45,0,0,1,2.44,2.43,2.4,2.4,0,0,1-1.51,2.2,8.73,8.73,0,0,1-3.36.57C481.34,370.34,478.91,368.92,478.91,364.13Z" transform="translate(-263.14 -228.34)"/><path class="cls-1" d="M497.34,364.06V364c0-4.51,3.44-6.6,8.34-6.6a14.74,14.74,0,0,1,5.05.85v-.34c0-2.43-1.5-3.78-4.44-3.78a13.71,13.71,0,0,0-4.05.57,2.34,2.34,0,0,1-.85.16,2.39,2.39,0,0,1-2.43-2.39,2.44,2.44,0,0,1,1.59-2.28,18,18,0,0,1,6.59-1.08c3.2,0,5.52.85,7,2.32s2.24,3.81,2.24,6.59v9.41a2.81,2.81,0,0,1-2.85,2.82,2.63,2.63,0,0,1-2.82-2.43v0a8,8,0,0,1-6.25,2.62C500.55,370.38,497.34,368.15,497.34,364.06Zm13.47-1.35v-1a9,9,0,0,0-3.74-.78c-2.51,0-4.05,1-4.05,2.86v.08c0,1.58,1.31,2.5,3.2,2.5C509,366.33,510.81,364.83,510.81,362.71Z" transform="translate(-263.14 -228.34)"/><path class="cls-2" d="M287.48,365.91a12.17,12.17,0,1,1-12.17-12.17A12.18,12.18,0,0,1,287.48,365.91Z" transform="translate(-263.14 -228.34)"/><path class="cls-3" d="M358,300c11.08-5.75,21.31-15.35,21.31-33.25v-.43c0-10-3.41-18.12-10-24.73-8.52-8.53-21.95-13.22-39-13.22H287.08a13,13,0,0,0-13.22,13.22v60.57l.05,0a11.79,11.79,0,0,0,11.75,11.27h45c20.68,0,30.7,7.46,30.7,20v.43c0,13.43-10.88,20.46-28.79,20.46H328.9c-.38,0-5.84-.11-5.84-.11h-1.91v.19a11.67,11.67,0,0,0,1.91,23.16h9.32c33.26,0,55.22-14.28,55.22-40.93v-.43C387.6,316,375.45,305.94,358,300Z" transform="translate(-263.14 -228.34)"/></svg>